<?xml version="1.0" encoding="utf-8" standalone="yes"?>
<!DOCTYPE svg PUBLIC "-//W3C//DTD SVG 1.1//EN" "http://www.w3.org/Graphics/SVG/1.1/DTD/svg11.dtd">
<svg width="1009" height="624" viewBox="0 0 1009 624" style="fill:none;stroke:none;fill-rule:evenodd;clip-rule:evenodd;stroke-linecap:round;stroke-linejoin:round;stroke-miterlimit:1.5;" version="1.1" xmlns="http://www.w3.org/2000/svg" xmlns:xlink="http://www.w3.org/1999/xlink"><style class="text-font-style fontImports" data-font-family="Roboto">@import url(https://fonts.googleapis.com/css2?family=Roboto:wght@400;700&amp;amp;display=block);</style><g id="items" style="isolation: isolate"><g id="blend" style="mix-blend-mode: normal"><g id="g-root-cp_1_g-1_i09xkf1cmbtop-fill" data-item-order="-507398" transform="translate(428.5999755859375, 122)"><g id="cp_1_g-1_i09xkf1cmbtop-fill" stroke="none" fill="#de8431"><g><path d="M 50.9 10L 10 94L 91.8 94L 50.9 10ZM 62.4 10L 103.3 94L 199.3 94L 158.4 10L 62.4 10Z"></path></g></g></g><g id="g-root-cp_2_g-2_i09xkf1cmbtor-fill" data-item-order="-507394" transform="translate(280, 206)"><g id="cp_2_g-2_i09xkf1cmbtor-fill" stroke="none" fill="#e0cb15"><g><path d="M 240.4 10L 158.6 10L 117.7 94L 281.3 94L 240.4 10ZM 146.9 10L 106 94L 10 94L 50.9 10L 146.9 10Z"></path></g></g></g><g id="g-root-cp_3_g-3_i09xkf1cmbtot-fill" data-item-order="-507390" transform="translate(346.79998779296875, 290)"><g id="cp_3_g-3_i09xkf1cmbtot-fill" stroke="none" fill="#92bd39"><g><path d="M 214.5 10L 50.9 10L 10 94L 255.4 94L 214.5 10ZM 226.2 10L 267.1 94L 363.1 94L 322.2 10L 226.2 10Z"></path></g></g></g><g id="g-root-cp_4_g-4_dkgffz1cmbuh3-fill" data-item-order="-507386" transform="translate(198, 374)"><g id="cp_4_g-4_dkgffz1cmbuh3-fill" stroke="none" fill="#3cc583"><g><path d="M 404.2001 10L 158.8001 10L 117.9001 94L 445.1001 94L 404.2001 10ZM 146.9 10L 106 94L 10 94L 50.9 10L 146.9 10Z"></path></g></g></g><g id="g-root-cp_5_g-5_dkgffz1cmbuh5-fill" data-item-order="-507382" transform="translate(265, 458)"><g id="cp_5_g-5_dkgffz1cmbuh5-fill" stroke="none" fill="#4e88e7"><g><path d="M 10 94L 419 94L 378.1 10L 50.9 10L 10 94ZM 390 10L 430.9 94L 526.9 94L 486 10L 390 10Z"></path></g></g></g><g id="g-root-tx_democrat_dkgffz1cmbuh7-fill" data-item-order="0" transform="translate(314.5, 38)"><g id="tx_democrat_dkgffz1cmbuh7-fill" stroke="none" fill="#484848"><g><text style="font: bold 25px Roboto, sans-serif; white-space: pre;" font-weight="bold" font-size="25px" font-family="Roboto, sans-serif"><tspan x="15.66" y="42.5" dominant-baseline="ideographic">Democratizing Wealth Creation</tspan></text></g></g></g><g id="g-root-tx_wealthcr_1d3mxin1cmbvuw-fill" data-item-order="0" transform="translate(638, 116)"><g id="tx_wealthcr_1d3mxin1cmbvuw-fill" stroke="none" fill="#de8431"><g><text style="font: bold 20px Roboto, sans-serif; white-space: pre;" font-weight="bold" font-size="20px" font-family="Roboto, sans-serif"><tspan x="12" y="33.5" dominant-baseline="ideographic">Wealth </tspan><tspan x="12" y="57.5" dominant-baseline="ideographic">Creation</tspan></text></g></g></g><g id="g-root-tx_1_1d3mxin1cmbvuy-fill" data-item-order="0" transform="translate(536, 152)"><g id="tx_1_1d3mxin1cmbvuy-fill" stroke="none" fill="#ffffff"><g><text style="font: bold 25px Roboto, sans-serif; white-space: pre;" font-weight="bold" font-size="25px" font-family="Roboto, sans-serif"><tspan x="14.82" y="42.5" dominant-baseline="ideographic">1</tspan></text></g></g></g><g id="g-root-tx_facilita_1d3mxin1cmbvux-fill" data-item-order="0" transform="translate(638, 176)"><g id="tx_facilita_1d3mxin1cmbvux-fill" stroke="none" fill="#484848"><g><text style="font: 15px Roboto, sans-serif; white-space: pre;" font-size="15px" font-family="Roboto, sans-serif"><tspan x="12" y="27.5" dominant-baseline="ideographic">Facilitates wealth </tspan><tspan x="12" y="45.5" dominant-baseline="ideographic">building for all</tspan></text></g></g></g><g id="g-root-tx_fraction_1hjgfn31cmbv2l-fill" data-item-order="0" transform="translate(158, 200)"><g id="tx_fraction_1hjgfn31cmbv2l-fill" stroke="none" fill="#e0cb15"><g><text style="font: bold 20px Roboto, sans-serif; white-space: pre;" font-weight="bold" font-size="20px" font-family="Roboto, sans-serif"><tspan x="14.59" y="33.5" dominant-baseline="ideographic">Fractional </tspan><tspan x="21.16" y="57.5" dominant-baseline="ideographic">Investing</tspan></text></g></g></g><g id="g-root-tx_2_1hjgfn31cmbv2n-fill" data-item-order="0" transform="translate(332, 236)"><g id="tx_2_1hjgfn31cmbv2n-fill" stroke="none" fill="#ffffff"><g><text style="font: bold 25px Roboto, sans-serif; white-space: pre;" font-weight="bold" font-size="25px" font-family="Roboto, sans-serif"><tspan x="14.82" y="42.5" dominant-baseline="ideographic">2</tspan></text></g></g></g><g id="g-root-tx_enablesi_1hjgfn31cmbv2m-fill" data-item-order="0" transform="translate(110, 260)"><g id="tx_enablesi_1hjgfn31cmbv2m-fill" stroke="none" fill="#484848"><g><text style="font: 15px Roboto, sans-serif; white-space: pre;" font-size="15px" font-family="Roboto, sans-serif"><tspan x="21.54" y="27.5" dominant-baseline="ideographic">Enables investment </tspan><tspan x="21.05" y="45.5" dominant-baseline="ideographic">with small amounts</tspan></text></g></g></g><g id="g-root-tx_simplifi_1uuwy0f1cmbthm-fill" data-item-order="0" transform="translate(722, 272)"><g id="tx_simplifi_1uuwy0f1cmbthm-fill" stroke="none" fill="#92bd39"><g><text style="font: bold 20px Roboto, sans-serif; white-space: pre;" font-weight="bold" font-size="20px" font-family="Roboto, sans-serif"><tspan x="12" y="33.5" dominant-baseline="ideographic">Simplified </tspan><tspan x="12" y="57.5" dominant-baseline="ideographic">Process</tspan></text></g></g></g><g id="g-root-tx_3_1qf3fvz1cmbu9w-fill" data-item-order="0" transform="translate(620, 320)"><g id="tx_3_1qf3fvz1cmbu9w-fill" stroke="none" fill="#ffffff"><g><text style="font: bold 25px Roboto, sans-serif; white-space: pre;" font-weight="bold" font-size="25px" font-family="Roboto, sans-serif"><tspan x="14.82" y="42.5" dominant-baseline="ideographic">3</tspan></text></g></g></g><g id="g-root-tx_makesinv_1qf3fvz1cmbu9v-fill" data-item-order="0" transform="translate(722, 332)"><g id="tx_makesinv_1qf3fvz1cmbu9v-fill" stroke="none" fill="#484848"><g><text style="font: 15px Roboto, sans-serif; white-space: pre;" font-size="15px" font-family="Roboto, sans-serif"><tspan x="12" y="30.5" dominant-baseline="ideographic">Makes investing </tspan><tspan x="12" y="48.5" dominant-baseline="ideographic">user-friendly and </tspan><tspan x="12" y="66.5" dominant-baseline="ideographic">straightforward</tspan></text></g></g></g><g id="g-root-tx_affordab_8zx2n1cmbw27-fill" data-item-order="0" transform="translate(74, 356)"><g id="tx_affordab_8zx2n1cmbw27-fill" stroke="none" fill="#3cc583"><g><text style="font: bold 20px Roboto, sans-serif; white-space: pre;" font-weight="bold" font-size="20px" font-family="Roboto, sans-serif"><tspan x="20.5" y="33.5" dominant-baseline="ideographic">Affordable </tspan><tspan x="50.36" y="57.5" dominant-baseline="ideographic">Access</tspan></text></g></g></g><g id="g-root-tx_provides_1uuwy0f1cmbthk-fill" data-item-order="0" transform="translate(38, 416)"><g id="tx_provides_1uuwy0f1cmbthk-fill" stroke="none" fill="#484848"><g><text style="font: 15px Roboto, sans-serif; white-space: pre;" font-size="15px" font-family="Roboto, sans-serif"><tspan x="57.16" y="30.5" dominant-baseline="ideographic">Provides cost-</tspan><tspan x="16.58" y="48.5" dominant-baseline="ideographic">effective investment </tspan><tspan x="101.88" y="66.5" dominant-baseline="ideographic">options</tspan></text></g></g></g><g id="g-root-tx_4_1uuwy0f1cmbthl-fill" data-item-order="0" transform="translate(254, 404)"><g id="tx_4_1uuwy0f1cmbthl-fill" stroke="none" fill="#ffffff"><g><text style="font: bold 25px Roboto, sans-serif; white-space: pre;" font-weight="bold" font-size="25px" font-family="Roboto, sans-serif"><tspan x="14.82" y="42.5" dominant-baseline="ideographic">4</tspan></text></g></g></g><g id="g-root-tx_automati_8zx2n1cmbw25-fill" data-item-order="0" transform="translate(806, 464)"><g id="tx_automati_8zx2n1cmbw25-fill" stroke="none" fill="#4e88e7"><g><text style="font: bold 20px Roboto, sans-serif; white-space: pre;" font-weight="bold" font-size="20px" font-family="Roboto, sans-serif"><tspan x="12" y="33.5" dominant-baseline="ideographic">Automation</tspan></text></g></g></g><g id="g-root-tx_5_94mxbj1cmbv9g-fill" data-item-order="0" transform="translate(698, 488)"><g id="tx_5_94mxbj1cmbv9g-fill" stroke="none" fill="#ffffff"><g><text style="font: bold 25px Roboto, sans-serif; white-space: pre;" font-weight="bold" font-size="25px" font-family="Roboto, sans-serif"><tspan x="14.82" y="42.5" dominant-baseline="ideographic">5</tspan></text></g></g></g><g id="g-root-tx_simplifi_8zx2n1cmbw26-fill" data-item-order="0" transform="translate(806, 500)"><g id="tx_simplifi_8zx2n1cmbw26-fill" stroke="none" fill="#484848"><g><text style="font: 15px Roboto, sans-serif; white-space: pre;" font-size="15px" font-family="Roboto, sans-serif"><tspan x="12" y="27.5" dominant-baseline="ideographic">Simplifies complex </tspan><tspan x="12" y="45.5" dominant-baseline="ideographic">investment tasks</tspan></text></g></g></g><g id="g-root-cp_1_g-1_i09xkf1cmbtop-stroke" data-item-order="-507398" transform="translate(428.5999755859375, 122)"><g id="cp_1_g-1_i09xkf1cmbtop-stroke" fill="none" stroke-linecap="round" stroke-linejoin="round" stroke-miterlimit="4" stroke="#ffffff" stroke-width="2"><g><path d="M 50.9 10L 10 94L 91.8 94L 50.9 10ZM 62.4 10L 103.3 94L 199.3 94L 158.4 10L 62.4 10Z"></path></g></g></g><g id="g-root-cp_2_g-2_i09xkf1cmbtor-stroke" data-item-order="-507394" transform="translate(280, 206)"><g id="cp_2_g-2_i09xkf1cmbtor-stroke" fill="none" stroke-linecap="round" stroke-linejoin="round" stroke-miterlimit="4" stroke="#ffffff" stroke-width="2"><g><path d="M 240.4 10L 158.6 10L 117.7 94L 281.3 94L 240.4 10ZM 146.9 10L 106 94L 10 94L 50.9 10L 146.9 10Z"></path></g></g></g><g id="g-root-cp_3_g-3_i09xkf1cmbtot-stroke" data-item-order="-507390" transform="translate(346.79998779296875, 290)"><g id="cp_3_g-3_i09xkf1cmbtot-stroke" fill="none" stroke-linecap="round" stroke-linejoin="round" stroke-miterlimit="4" stroke="#ffffff" stroke-width="2"><g><path d="M 214.5 10L 50.9 10L 10 94L 255.4 94L 214.5 10ZM 226.2 10L 267.1 94L 363.1 94L 322.2 10L 226.2 10Z"></path></g></g></g><g id="g-root-cp_4_g-4_dkgffz1cmbuh3-stroke" data-item-order="-507386" transform="translate(198, 374)"><g id="cp_4_g-4_dkgffz1cmbuh3-stroke" fill="none" stroke-linecap="round" stroke-linejoin="round" stroke-miterlimit="4" stroke="#ffffff" stroke-width="2"><g><path d="M 404.2001 10L 158.8001 10L 117.9001 94L 445.1001 94L 404.2001 10ZM 146.9 10L 106 94L 10 94L 50.9 10L 146.9 10Z"></path></g></g></g><g id="g-root-cp_5_g-5_dkgffz1cmbuh5-stroke" data-item-order="-507382" transform="translate(265, 458)"><g id="cp_5_g-5_dkgffz1cmbuh5-stroke" fill="none" stroke-linecap="round" stroke-linejoin="round" stroke-miterlimit="4" stroke="#ffffff" stroke-width="2"><g><path d="M 10 94L 419 94L 378.1 10L 50.9 10L 10 94ZM 390 10L 430.9 94L 526.9 94L 486 10L 390 10Z"></path></g></g></g><g id="g-root-tx_democrat_dkgffz1cmbuh7-stroke" data-item-order="0" transform="translate(314.5, 38)"></g><g id="g-root-tx_wealthcr_1d3mxin1cmbvuw-stroke" data-item-order="0" transform="translate(638, 116)"></g><g id="g-root-tx_1_1d3mxin1cmbvuy-stroke" data-item-order="0" transform="translate(536, 152)"></g><g id="g-root-tx_facilita_1d3mxin1cmbvux-stroke" data-item-order="0" transform="translate(638, 176)"></g><g id="g-root-tx_fraction_1hjgfn31cmbv2l-stroke" data-item-order="0" transform="translate(158, 200)"></g><g id="g-root-tx_2_1hjgfn31cmbv2n-stroke" data-item-order="0" transform="translate(332, 236)"></g><g id="g-root-tx_enablesi_1hjgfn31cmbv2m-stroke" data-item-order="0" transform="translate(110, 260)"></g><g id="g-root-tx_simplifi_1uuwy0f1cmbthm-stroke" data-item-order="0" transform="translate(722, 272)"></g><g id="g-root-tx_3_1qf3fvz1cmbu9w-stroke" data-item-order="0" transform="translate(620, 320)"></g><g id="g-root-tx_makesinv_1qf3fvz1cmbu9v-stroke" data-item-order="0" transform="translate(722, 332)"></g><g id="g-root-tx_affordab_8zx2n1cmbw27-stroke" data-item-order="0" transform="translate(74, 356)"></g><g id="g-root-tx_provides_1uuwy0f1cmbthk-stroke" data-item-order="0" transform="translate(38, 416)"></g><g id="g-root-tx_4_1uuwy0f1cmbthl-stroke" data-item-order="0" transform="translate(254, 404)"></g><g id="g-root-tx_automati_8zx2n1cmbw25-stroke" data-item-order="0" transform="translate(806, 464)"></g><g id="g-root-tx_5_94mxbj1cmbv9g-stroke" data-item-order="0" transform="translate(698, 488)"></g><g id="g-root-tx_simplifi_8zx2n1cmbw26-stroke" data-item-order="0" transform="translate(806, 500)"></g></g></g></svg>