<svg data-v-423bf9ae="" xmlns="http://www.w3.org/2000/svg" viewBox="0 0 414.14635769765476 60" class="font"><!----><!----><!----><g data-v-423bf9ae="" id="df481381-7e37-4c4d-b61d-55237c9150e0" fill="black" transform="matrix(5.628517904206723,0,0,5.628517904206723,-7.26078653187372,-21.72608033856332)"><path d="M2.59 14.35L2.59 9.39C2.59 8.48 3.43 8.06 4.28 8.06C5.33 8.06 5.89 8.68 5.89 9.93L5.89 14.35L7.20 14.35L7.20 9.70C7.20 7.95 6.20 6.96 4.72 6.96C3.53 6.96 2.95 7.60 2.65 8.33L2.59 8.33L2.59 7.13L1.29 7.13L1.29 14.35ZM12.74 14.52C14.20 14.52 15.22 13.85 15.68 12.92L14.80 12.24C14.41 12.98 13.69 13.43 12.75 13.43C11.44 13.43 10.64 12.56 10.64 11.35L10.64 11.06L15.90 11.06L15.90 10.51C15.90 8.43 14.63 6.96 12.64 6.96C10.65 6.96 9.30 8.43 9.30 10.75C9.30 13.05 10.60 14.52 12.74 14.52ZM12.66 7.99C13.79 7.99 14.55 8.81 14.55 10.01L14.55 10.16L10.64 10.16L10.64 10.05C10.64 8.86 11.48 7.99 12.66 7.99ZM19.01 14.35L20.15 12.73L20.90 11.61L20.97 11.61L21.76 12.73L22.92 14.35L24.46 14.35L21.74 10.65L24.37 7.13L22.90 7.13L21.90 8.58L21.10 9.73L21.03 9.73L20.22 8.58L19.18 7.13L17.64 7.13L20.24 10.68L17.56 14.35ZM33.25 14.35L30.32 4.58L28.49 4.58L25.56 14.35L26.95 14.35L27.73 11.65L31.02 11.65L31.81 14.35ZM30.73 10.50L28.03 10.50L29.32 5.98L29.44 5.98ZM34.69 14.35L40.91 14.35L40.91 13.27L38.44 13.27L38.44 3.99L34.69 3.99L34.69 5.07L37.14 5.07L37.14 13.27L34.69 13.27ZM49.38 14.35L49.38 13.27L46.17 13.27L46.17 8.20L49.38 8.20L49.38 7.13L46.17 7.13L46.17 4.58L44.94 4.58L44.94 6.43C44.94 6.94 44.74 7.13 44.24 7.13L42.56 7.13L42.56 8.20L44.87 8.20L44.87 12.61C44.87 13.64 45.42 14.35 46.59 14.35ZM54.60 14.49C55.41 14.49 55.72 14.08 55.72 13.58L55.72 13.29C55.72 12.78 55.41 12.39 54.60 12.39C53.79 12.39 53.48 12.78 53.48 13.29L53.48 13.58C53.48 14.08 53.79 14.49 54.60 14.49ZM66.56 14.35L66.56 13.27L65.59 13.27L65.59 9.45C65.59 7.87 64.50 6.96 62.75 6.96C61.25 6.96 60.30 7.64 59.92 8.40L60.75 9.06C61.12 8.41 61.70 8.02 62.65 8.02C63.71 8.02 64.29 8.54 64.29 9.56L64.29 10.21L62.82 10.21C60.66 10.21 59.68 10.96 59.68 12.33C59.68 13.69 60.65 14.52 62.13 14.52C63.29 14.52 64.01 14 64.32 13.16L64.39 13.16C64.47 13.86 64.85 14.35 65.70 14.35ZM62.44 13.50C61.57 13.50 61.03 13.13 61.03 12.43L61.03 12.14C61.03 11.47 61.60 11.10 62.83 11.10L64.29 11.10L64.29 12.22C64.29 12.95 63.52 13.50 62.44 13.50ZM71.85 5.66C72.55 5.66 72.80 5.32 72.80 4.90L72.80 4.63C72.80 4.20 72.55 3.86 71.85 3.86C71.15 3.86 70.90 4.20 70.90 4.63L70.90 4.90C70.90 5.32 71.15 5.66 71.85 5.66ZM68.66 14.35L74.87 14.35L74.87 13.27L72.49 13.27L72.49 7.13L68.66 7.13L68.66 8.20L71.19 8.20L71.19 13.27L68.66 13.27Z"></path></g><!----><!----></svg>